<svg xmlns="http://www.w3.org/2000/svg"
    xmlns:xlink="http://www.w3.org/1999/xlink" version="1.1" id="Layer_1" x="0px" y="0px" viewBox="0 0 201.7 134.6" style="enable-background:new 0 0 201.7 134.6;" xml:space="preserve">
    <style type="text/css">
	.st0{fill:#1D1D1D;}
    </style>
    <path class="st0" d="M46.8,117.6c-4.4,0-8,3.2-8,7.2s3.6,7.2,8,7.2s8-3.2,8-7.2C54.8,120.8,51.3,117.6,46.8,117.6L46.8,117.6z   M46.8,127.3c-1.6,0-2.8-1.1-2.8-2.5s1.2-2.5,2.8-2.5c1.6,0,2.8,1.1,2.8,2.5S48.4,127.3,46.8,127.3L46.8,127.3z"/>
    <path class="st0" d="M191.4,116.6v10H76.1v-1H60.4c-1.7,0-3-1.2-3-2.7v-0.8c-0.9-3-3.3-5.5-6.5-6.6v-3.3L5.3,80.7l-2.4,2.1  c-0.6,0.5-1.4,0.6-2.1,0c-0.6-0.4-0.6-1.2,0.1-1.8l7.2-6.5c0.6-0.5,1.6-0.5,2.1,0s0.6,1.4,0,1.9l-2.7,2.4L51,108.9h3.8v7.1h2.6  v-11.2h-5.2v-2.9h10.2l9.1,16.8h4.8v-2.1L191.4,116.6z"/>
    <path class="st0" d="M133.8,88.2h-15.6v5H91.7v-5H73.3v25.7h60.5L133.8,88.2z"/>
    <path class="st0" d="M181.3,94.4h-26.5v-6.2h-18.4v25.7h63.1V88.2h-18.4L181.3,94.4z"/>
    <path class="st0" d="M181.3,65.9h-26.5v-6.3h-18.4v25.9h63.1V59.6h-18.4L181.3,65.9z"/>
    <path class="st0" d="M133.8,85.5V59.6h-15.6v5.1H91.7v-5.1H73.3v25.9C81.1,85.5,134.6,85.5,133.8,85.5L133.8,85.5z"/>
    <path class="st0" d="M133.8,31h-15.6v6.3H91.7V31H73.3v25.9h60.5L133.8,31z"/>
    <path class="st0" d="M181.3,31v6.3h-26.5V31h-18.4v25.9h63.1V31H181.3z"/>
    <path class="st0" d="M157.4,31h21.2v4.9h-21.2V31z"/>
    <path class="st0" d="M171,2.4h-18.4v6.3h-26.5V2.4h-18.4v25.9h63.1L171,2.4z"/>
    <path class="st0" d="M128.9,2.4h21.2v4.9h-21.2V2.4z"/>
    <path class="st0" d="M94.3,31h21.2v4.9H94.3V31z"/>
    <path class="st0" d="M157.4,59.6h21.2v4.9h-21.2V59.6z"/>
    <path class="st0" d="M94.3,59.6h21.2v3.8H94.3V59.6z"/>
    <path class="st0" d="M157.4,88.2h21.2V93h-21.2V88.2z"/>
    <path class="st0" d="M94.3,88.2h21.2v3.6H94.3V88.2z"/>
</svg>