<svg xmlns="http://www.w3.org/2000/svg"
    xmlns:xlink="http://www.w3.org/1999/xlink" version="1.1" id="Layer_1" x="0px" y="0px" viewBox="0 0 201.7 134.6" style="enable-background:new 0 0 201.7 134.6;" xml:space="preserve">
    <style type="text/css">
	.st0{fill:none;stroke:#1D1D1D;stroke-width:15;stroke-miterlimit:10;}
	.st1{fill:#FFFFFF;}
	.st2{fill-rule:evenodd;clip-rule:evenodd;fill:#64A544;}
	.st3{fill:#1D1D1D;}
    </style>
    <g id="reach">
        <g>
            <circle class="st0" cx="48" cy="70.1" r="37.3"/>
            <g>
                <path class="st1" d="M31.1,99.2c0.2,0,0.6,0.1,1,0.3c1.5,0.7,1.6,2.4,0.7,4c-1.1,2.2-2.8,2.4-3.9,1.8c-0.4-0.2-0.7-0.4-0.7-0.6     l0.7-0.9c0.1,0.1,0.2,0.2,0.4,0.4c0.7,0.3,1.5,0.1,2.2-1.4c0.7-1.4,0.4-2.2-0.2-2.6c-0.2-0.1-0.4-0.1-0.6-0.2L31.1,99.2z"/>
                <path class="st1" d="M25.5,99.4c1.4-2.1,2.7-2.4,3.7-1.7c1.3,0.8,0.8,2.5-0.2,4c-1,1.5-2.5,2.4-3.7,1.6     C24,102.3,24.6,100.6,25.5,99.4z M27.9,100.9c0.8-1.3,1-2,0.6-2.3c-0.4-0.3-1.2,0.4-1.9,1.5c-0.7,1-1.1,1.9-0.6,2.2     C26.3,102.6,27.1,102.1,27.9,100.9z"/>
                <path class="st1" d="M22.2,94.9c-0.4,0.4-1,1.1-1.5,1.6l0,0c0.6-0.4,1.3-0.9,1.7-1.2l2.1-1.3l0.7,0.6L24,96.7     c-0.3,0.4-0.7,1.2-1.1,1.8l0,0c0.5-0.5,1.1-1.1,1.6-1.6l1.6-1.6l0.8,0.7l-4.9,4.4l-1-1l1.3-2.1c0.4-0.7,0.8-1.4,1.3-2l0,0     c-0.6,0.4-1.2,0.9-1.9,1.4l-2,1.3l-1-1l4.3-5l0.8,0.8L22.2,94.9z"/>
                <path class="st1" d="M17.1,95.5c-0.3-0.2-0.6-0.6-0.9-1c-0.4-0.6-0.7-1.2-0.7-1.7c0-0.5,0.4-1,0.8-1.3c0.6-0.4,1.1-0.6,1.6-0.5     c0.6,0.1,1.1,0.4,1.5,0.9c0.1,0.1,0.1,0.1,0.1,0.2l1.9-1.5l0.7,1L17.1,95.5z M18.7,92.7c0-0.1-0.1-0.1-0.1-0.1     c-0.4-0.5-1-0.4-1.4-0.1c-0.4,0.4-0.7,0.8-0.3,1.3c0.1,0.1,0.1,0.1,0.2,0.2L18.7,92.7z"/>
                <path class="st1" d="M13.9,91.2l-0.7-1.1l4.7-2.7l-0.8-1.5l1-0.5l1.5,2.6L13.9,91.2z"/>
                <path class="st1" d="M11.3,86.1l6-2.7l0.5,1.2l-6,2.7L11.3,86.1z"/>
                <path class="st1" d="M15,81.8l1.6-0.2l0.4,1.2l-6.7,0.7L9.7,82l5.8-3.3l0.4,1.2l-1.3,0.7L15,81.8z M13.7,81l-1.3,0.7     c-0.4,0.2-1,0.5-1.3,0.7l0,0c0.4-0.1,1.1-0.2,1.5-0.2l1.4-0.2L13.7,81z"/>
                <path class="st1" d="M15.4,77.9l-6.5,1.2l-0.2-1.2l2.4-1.5c0.4-0.3,1.3-0.7,1.8-1l0,0c-0.7,0.1-1.8,0.4-3,0.7l-1.4,0.2l-0.2-1.1     l6.5-1.2l0.2,1.2l-2.4,1.5c-0.5,0.3-1.3,0.7-1.8,1l0,0c0.7-0.1,1.6-0.4,3-0.6l1.5-0.3L15.4,77.9z"/>
                <path class="st1" d="M9.2,72.4l0.1,1.2l-1.2,0.1L7.9,70l1.2-0.1l0.1,1.2l5.4-0.2l0.1,1.3L9.2,72.4z"/>
                <path class="st1" d="M11,65.3l0.9,0.1l-0.2,1.9l-0.9-0.1L11,65.3z"/>
                <path class="st1" d="M15.9,60.1c0.1,0.2,0,0.6-0.1,1c-0.4,1.6-1.9,2.1-3.8,1.6c-2.4-0.6-3-2.1-2.7-3.4c0.1-0.4,0.3-0.7,0.4-0.8     l1,0.4c-0.1,0.1-0.2,0.3-0.3,0.5c-0.1,0.7,0.3,1.5,1.8,1.9c1.6,0.4,2.3-0.1,2.4-0.8c0.1-0.2,0.1-0.5,0.1-0.7L15.9,60.1z"/>
                <path class="st1" d="M14.4,54.6c2.3,0.9,2.9,2.1,2.4,3.3c-0.5,1.4-2.2,1.3-3.9,0.7s-2.9-1.9-2.3-3.3C11.3,53.8,13,54,14.4,54.6z      M13.5,57.4c1.4,0.5,2.2,0.6,2.4,0.1c0.2-0.5-0.7-1-1.8-1.6c-1-0.4-2.1-0.7-2.3-0.1C11.5,56.2,12.1,56.8,13.5,57.4z"/>
                <path class="st1" d="M18.1,50.5c-0.5-0.3-1.3-0.7-1.9-1l0,0c0.5,0.4,1.2,1,1.6,1.4l1.7,1.7l-0.4,0.8l-2.3-0.7     c-0.5-0.1-1.3-0.4-2-0.7l0,0c0.6,0.4,1.3,0.8,1.8,1.2l1.9,1.3l-0.6,1l-5.4-3.8l0.7-1.2l2.3,0.7c0.8,0.3,1.6,0.5,2.2,0.8l0,0     c-0.6-0.4-1.1-1-1.8-1.6l-1.8-1.7l0.7-1.2l5.8,3l-0.5,1L18.1,50.5z"/>
                <path class="st1" d="M16.4,45.7c0.1-0.3,0.4-0.7,0.7-1.1c0.5-0.6,1-1,1.6-1c0.5-0.1,1,0.1,1.5,0.5c0.5,0.4,0.8,1,0.9,1.5     c0.1,0.6-0.2,1.3-0.5,1.6c-0.1,0.1-0.1,0.1-0.1,0.2l1.8,1.6l-0.8,1L16.4,45.7z M19.5,46.6c0.1,0,0.1-0.1,0.1-0.1     c0.4-0.5,0.2-1-0.2-1.4s-1-0.5-1.3,0c-0.1,0.1-0.1,0.2-0.1,0.3L19.5,46.6z"/>
                <path class="st1" d="M19.8,41.6l1-0.9l3.8,4l1.3-1.2l0.7,0.8l-2.1,2L19.8,41.6z"/>
                <path class="st1" d="M24.2,37.8l4,5.3l-1,0.7l-4-5.3L24.2,37.8z"/>
                <path class="st1" d="M29.3,40.5l0.5,1.4l-1,0.7l-2.2-6.4l1.3-0.8l4.5,5l-1,0.7l-1-1.1L29.3,40.5z M29.7,39.1l-0.9-1     c-0.3-0.3-0.7-0.8-1-1.2l0,0c0.1,0.4,0.4,1,0.6,1.4l0.5,1.3L29.7,39.1z"/>
                <path class="st1" d="M33.1,40.1L30.5,34l1.1-0.4l1.9,2c0.4,0.4,1,1,1.4,1.5l0,0c-0.3-0.6-0.8-1.6-1.3-2.7L33,33l1-0.4l2.6,6.1     l-1,0.4L33.7,37c-0.4-0.4-1-1-1.4-1.6l0,0c0.3,0.6,0.7,1.5,1.3,2.7l0.6,1.3L33.1,40.1z"/>
                <path class="st1" d="M37.1,32.7L36,33l-0.3-1.1l3.5-1l0.3,1.1l-1.1,0.3l1.4,5.2l-1.3,0.4L37.1,32.7z"/>
                <path class="st1" d="M44.5,32.9l0.1,0.9L42.7,34l-0.1-0.9L44.5,32.9z"/>
                <path class="st1" d="M50.6,36.5c-0.2,0.1-0.5,0.1-1,0.1c-1.7-0.1-2.4-1.5-2.4-3.3c0.1-2.5,1.5-3.4,2.7-3.4c0.4,0,0.7,0.1,0.9,0.2     l-0.2,1C50.4,31.1,50.3,31,50,31c-0.7,0-1.4,0.6-1.4,2.2c-0.1,1.6,0.5,2.2,1.3,2.2c0.2,0,0.4-0.1,0.6-0.1L50.6,36.5z"/>
                <path class="st1" d="M55.6,33.9c-0.4,2.4-1.4,3.3-2.6,3.1c-1.5-0.2-1.8-1.8-1.6-3.6c0.3-1.8,1.2-3.2,2.7-3     C55.7,30.6,55.8,32.4,55.6,33.9z M52.7,33.6c-0.2,1.5-0.1,2.3,0.4,2.4c0.5,0.1,0.9-0.9,1.1-2.1c0.1-1.1,0.1-2.2-0.4-2.3     C53.4,31.4,53,32.2,52.7,33.6z"/>
                <path class="st1" d="M60.5,36.5c0.1-0.6,0.4-1.4,0.6-2.1l0,0c-0.3,0.7-0.7,1.3-1,1.8l-1.3,2l-0.9-0.3l0.2-2.4     c0.1-0.5,0.1-1.4,0.2-2.1l0,0c-0.2,0.7-0.5,1.5-0.7,2.1l-0.8,2.1l-1-0.4l2.5-6.1l1.3,0.4l-0.2,2.4c-0.1,0.8-0.1,1.6-0.3,2.4l0,0     c0.3-0.7,0.7-1.3,1.1-2.1l1.3-2.1l1.3,0.4L61,39.1l-1.1-0.4L60.5,36.5z"/>
                <path class="st1" d="M64.8,33.8c0.4,0.1,0.8,0.3,1.3,0.5c0.7,0.4,1.2,0.7,1.3,1.3c0.2,0.5,0.1,1-0.1,1.6c-0.3,0.7-0.7,1-1.2,1.2     c-0.6,0.2-1.3,0.1-1.7-0.1c-0.1-0.1-0.1-0.1-0.2-0.1L63,40.1l-1.1-0.6L64.8,33.8z M64.6,36.9c0.1,0.1,0.1,0.1,0.1,0.1     c0.6,0.3,1,0,1.3-0.5c0.3-0.5,0.3-1-0.3-1.3c-0.1-0.1-0.2-0.1-0.3-0.1L64.6,36.9z"/>
                <path class="st1" d="M69.5,36.2l1,0.7l-3.1,4.5l1.4,1l-0.6,0.9l-2.4-1.6L69.5,36.2z"/>
                <path class="st1" d="M74.2,39.7l-4.2,5l-1-0.8l4.2-5L74.2,39.7z"/>
                <path class="st1" d="M72.7,45.2L71.4,46l-0.9-0.9l5.7-3.5l1,1.1l-3.8,5.5l-0.9-0.9l0.9-1.3L72.7,45.2z M74.2,45.3l0.8-1.1     c0.2-0.3,0.7-0.8,0.9-1.2l0,0c-0.4,0.2-0.9,0.7-1.3,0.9l-1.2,0.8L74.2,45.3z"/>
                <path class="st1" d="M74,48.9l5.3-3.8l0.7,1l-1.5,2.4c-0.3,0.4-0.8,1.2-1.1,1.7l0,0c0.5-0.4,1.4-1.2,2.4-1.9l1.2-0.9l0.7,0.9     L76.3,52l-0.7-1l1.4-2.3c0.3-0.5,0.8-1.3,1.2-1.7l0,0c-0.5,0.4-1.3,1-2.4,1.8l-1.2,0.9L74,48.9z"/>
                <path class="st1" d="M82,51.1l-0.5-1l1-0.6l1.7,3.2l-1,0.6l-0.6-1l-4.7,2.6l-0.6-1.1L82,51.1z"/>
            </g>
        </g>
        <g>
            <path class="st2" d="M59.8,118.1c-0.6,0-1.1-0.3-1.4-0.8c-2-3.3-5.5-7.2-10-11.3c-2.4-2.1-4.5-3.8-6.4-5.3    c-0.4-0.3-0.7-0.8-0.7-1.4v-0.3c0-1.2,0-3.1,1.5-5c1.1-1.4,2.8-2.3,4.4-2.3c0.2,0,0.4,0,0.5,0.1c0.1,0,0.3,0.1,0.4,0.1    c4,1.6,8.8,5.4,11.2,7.4c5.9-8,13.2-14.6,18.4-18.8c3.5-2.9,7.1-5.5,10.7-7.8c0.3-0.2,0.6-0.3,0.9-0.3c0.3,0,0.5,0.1,0.8,0.2    c0.8,0.4,1.6,1.1,2,1.7c0.6,0.9,0.9,1.8,0.7,2.9c-0.1,0.4-0.3,0.8-0.6,1.1c-21,17.8-30.8,38.6-30.9,38.9c-0.3,0.5-0.8,0.9-1.4,0.9    C59.8,118.1,59.8,118.1,59.8,118.1z"/>
            <path class="st1" d="M89.2,74c0.5,0.3,1.1,0.7,1.4,1.2c0.5,0.6,0.5,1.2,0.5,1.8c-21.5,18.2-31.3,39.4-31.3,39.4    c-2.6-4.2-6.8-8.4-10.3-11.7c-2.3-2-4.5-3.8-6.6-5.4c0-1.1-0.1-2.7,1.1-4.3c0.9-1.1,2.2-1.7,3.1-1.7c0.1,0,0.2,0,0.3,0l0,0    c5.1,2.1,12.2,8.3,12.2,8.3c5.8-8.2,13.2-15.1,19.2-20C82.4,78.8,85.9,76.2,89.2,74 M89.2,70.6c-0.7,0-1.3,0.2-1.8,0.5    c-3.6,2.4-7.2,5.1-10.8,8c-5,4.1-11.8,10.3-17.6,17.8c-2.7-2.1-6.8-5.1-10.3-6.6c-0.3-0.1-0.5-0.2-0.8-0.2    c-0.3-0.1-0.5-0.1-0.7-0.1c-2.1,0-4.3,1.1-5.7,3c-1.9,2.4-1.8,4.8-1.8,6.1v0.3c0,1.1,0.5,2.1,1.4,2.7c1.9,1.4,4,3.1,6.3,5.1    c4.5,4,7.8,7.8,9.7,10.9c0.6,1,1.7,1.6,2.9,1.6c0.1,0,0.1,0,0.2,0c1.2-0.1,2.4-0.8,2.9-2c0.1-0.2,9.8-20.8,30.5-38.3    c0.7-0.5,1.1-1.4,1.1-2.2c0.1-1.5-0.2-2.8-1.1-4.1c-0.6-0.9-1.6-1.7-2.6-2.2C90.3,70.8,89.8,70.6,89.2,70.6L89.2,70.6z"/>
        </g>
        <g>
            <path class="st3" d="M24.4,61.8c0.9-0.2,2-0.3,3.1-0.3c1.6,0,3,0.2,3.9,1.1c0.9,0.8,1.1,1.8,1.1,3.1c0,1.6-0.7,3-2.3,3.7v0.1    c1,0.4,1.5,1.3,1.8,2.9c0.3,1.7,0.7,3.5,0.9,4h-3c-0.2-0.4-0.5-1.9-0.7-3.5c-0.3-1.9-0.7-2.3-1.7-2.3h-0.4v5.9h-2.9    C24.4,76.4,24.4,61.8,24.4,61.8z M27.3,68.2h0.5c1.3,0,1.9-1,1.9-2.3s-0.5-2.1-1.8-2.2c-0.3,0-0.5,0-0.7,0.1V68.2z"/>
            <path class="st3" d="M41.2,69.9h-3.3v4h3.8v2.5H35V61.6h6.4v2.5h-3.5v3.4h3.3V69.9z"/>
            <path class="st3" d="M46.3,73l-0.7,3.3h-2.8L46,61.6h3.4l2.9,14.7h-2.8L48.8,73H46.3z M48.6,70.8l-0.5-3.1    c-0.1-0.9-0.3-2.3-0.5-3.3h-0.1c-0.1,1-0.4,2.5-0.5,3.3l-0.5,3.1H48.6z"/>
            <path class="st3" d="M60.9,76.1c-0.4,0.2-1.2,0.3-2.2,0.3c-3.7,0-5.5-3.1-5.5-7.3c0-5.5,3.1-7.7,5.9-7.7c1,0,1.7,0.2,2,0.4    l-0.5,2.4C60.3,64.1,60,64,59.3,64c-1.6,0-3.1,1.4-3.1,5.1c0,3.5,1.3,4.9,3.1,4.9c0.5,0,1-0.1,1.4-0.2L60.9,76.1z"/>
            <path class="st3" d="M65.7,61.6v5.9h3v-5.9h2.9v14.7h-2.9v-6.1h-3v6.1h-2.9V61.6H65.7z"/>
        </g>
    </g>
    <g id="reach_1_">
        <g>

            <ellipse transform="matrix(0.1602 -0.9871 0.9871 0.1602 59.2094 209.74)" class="st0" cx="152.9" cy="70.1" rx="37.3" ry="37.3"/>
            <g>
                <path class="st1" d="M135.6,98.3c0.2,0,0.6,0.1,1,0.3c1.5,0.7,1.6,2.4,0.7,4c-1.1,2.2-2.8,2.4-3.9,1.8c-0.4-0.2-0.7-0.4-0.7-0.6     l0.7-0.9c0.1,0.1,0.2,0.2,0.4,0.4c0.7,0.3,1.5,0.1,2.2-1.4c0.7-1.4,0.4-2.2-0.2-2.6c-0.2-0.1-0.4-0.1-0.6-0.2L135.6,98.3z"/>
                <path class="st1" d="M129.9,98.5c1.4-2.1,2.7-2.4,3.7-1.7c1.3,0.8,0.8,2.5-0.2,4c-1,1.5-2.5,2.4-3.7,1.6     C128.5,101.4,129.1,99.7,129.9,98.5z M132.4,100c0.8-1.3,1-2,0.6-2.3c-0.4-0.3-1.2,0.4-1.9,1.5c-0.7,1-1.1,1.9-0.6,2.2     C130.9,101.7,131.6,101.2,132.4,100z"/>
                <path class="st1" d="M126.7,94c-0.4,0.4-1,1.1-1.5,1.6l0,0c0.6-0.4,1.3-0.9,1.7-1.2l2.1-1.3l0.7,0.6l-1.2,2.1     c-0.3,0.4-0.7,1.2-1.1,1.8l0,0c0.5-0.5,1.1-1.1,1.6-1.6l1.6-1.6l0.8,0.7l-4.9,4.4l-1-1l1.3-2.1c0.4-0.7,0.8-1.4,1.3-2l0,0     c-0.6,0.4-1.2,0.9-1.9,1.4l-2,1.3l-1-1l4.3-5l0.8,0.8L126.7,94z"/>
                <path class="st1" d="M121.7,94.6c-0.3-0.2-0.6-0.6-0.9-1c-0.4-0.6-0.7-1.2-0.7-1.7c0-0.5,0.4-1,0.8-1.3c0.6-0.4,1.1-0.6,1.6-0.5     c0.6,0.1,1.1,0.4,1.5,0.9c0.1,0.1,0.1,0.1,0.1,0.2l1.9-1.5l0.7,1L121.7,94.6z M123.2,91.8c0-0.1-0.1-0.1-0.1-0.1     c-0.4-0.5-1-0.4-1.4-0.1c-0.4,0.4-0.7,0.8-0.3,1.3c0.1,0.1,0.1,0.1,0.2,0.2L123.2,91.8z"/>
                <path class="st1" d="M118.4,90.3l-0.7-1.1l4.7-2.7l-0.8-1.5l1-0.5l1.5,2.6L118.4,90.3z"/>
                <path class="st1" d="M115.7,85.2l6-2.7l0.5,1.2l-6,2.7L115.7,85.2z"/>
                <path class="st1" d="M119.5,80.9l1.6-0.2l0.4,1.2l-6.7,0.7l-0.5-1.5l5.8-3.3l0.4,1.2l-1.3,0.7L119.5,80.9z M118.2,80.1l-1.3,0.7     c-0.4,0.2-1,0.5-1.3,0.7l0,0c0.4-0.1,1.1-0.2,1.5-0.2l1.4-0.2L118.2,80.1z"/>
                <path class="st1" d="M119.9,77l-6.5,1.2l-0.2-1.2l2.4-1.5c0.4-0.3,1.3-0.7,1.8-1l0,0c-0.7,0.1-1.8,0.4-3,0.7l-1.4,0.2l-0.2-1.1     l6.5-1.2l0.2,1.2l-2.3,1.4c-0.5,0.3-1.3,0.7-1.8,1l0,0c0.7-0.1,1.6-0.4,3-0.6l1.5-0.3L119.9,77z"/>
                <path class="st1" d="M113.7,71.5l0.1,1.2l-1.2,0.1l-0.1-3.6l1.2-0.1l0.1,1.2l5.4-0.2l0.1,1.3L113.7,71.5z"/>
                <path class="st1" d="M115.4,64.4l0.9,0.1l-0.2,1.9l-0.9-0.1L115.4,64.4z"/>
                <path class="st1" d="M120.4,59.2c0.1,0.2,0,0.6-0.1,1c-0.4,1.6-1.9,2.1-3.8,1.6c-2.4-0.6-3-2.1-2.7-3.4c0.1-0.4,0.3-0.7,0.4-0.8     l1,0.4c-0.1,0.1-0.2,0.3-0.3,0.5c-0.1,0.7,0.3,1.5,1.8,1.9c1.6,0.4,2.3-0.1,2.4-0.8c0.1-0.2,0.1-0.4,0.1-0.6L120.4,59.2z"/>
                <path class="st1" d="M118.9,53.7c2.3,0.9,2.9,2.1,2.4,3.3c-0.5,1.4-2.2,1.3-3.9,0.7s-2.9-1.9-2.3-3.3     C115.7,52.9,117.5,53.1,118.9,53.7z M118,56.4c1.4,0.5,2.2,0.6,2.4,0.1c0.2-0.5-0.7-1-1.8-1.6c-1-0.4-2.1-0.7-2.3-0.1     C116,55.4,116.7,55.9,118,56.4z"/>
                <path class="st1" d="M122.5,49.5c-0.5-0.3-1.3-0.7-1.9-1l0,0c0.5,0.4,1.2,1,1.6,1.4l1.7,1.7l-0.4,0.8l-2.3-0.7     c-0.5-0.1-1.3-0.4-2-0.7l0,0c0.6,0.4,1.3,0.8,1.8,1.2l1.9,1.3l-0.6,1l-5.4-3.8l0.7-1.2l2.3,0.7c0.8,0.3,1.6,0.5,2.2,0.8l0,0     c-0.6-0.4-1.1-1-1.8-1.6l-1.8-1.7l0.7-1.2l5.8,3l-0.6,1L122.5,49.5z"/>
                <path class="st1" d="M120.8,44.7c0.1-0.3,0.4-0.7,0.7-1.1c0.5-0.6,1-1,1.6-1c0.5-0.1,1,0.1,1.5,0.5c0.5,0.4,0.8,1,0.9,1.5     c0.1,0.6-0.2,1.3-0.5,1.6c-0.1,0.1-0.1,0.1-0.1,0.2l1.8,1.6l-0.8,1L120.8,44.7z M124,45.7c0.1,0,0.1-0.1,0.1-0.1     c0.4-0.5,0.2-1-0.2-1.4c-0.4-0.4-1-0.5-1.3,0c-0.1,0.1-0.1,0.2-0.1,0.3L124,45.7z"/>
                <path class="st1" d="M124.3,40.6l1-0.9l3.8,4l1.3-1.2l0.7,0.8l-2.1,2L124.3,40.6z"/>
                <path class="st1" d="M128.7,36.9l4,5.3l-1,0.7l-4-5.3L128.7,36.9z"/>
                <path class="st1" d="M133.8,39.6l0.5,1.4l-1,0.7l-2.2-6.4l1.3-0.8l4.5,5l-1,0.7l-1-1.1L133.8,39.6z M134.2,38.2l-0.9-1     c-0.3-0.3-0.7-0.8-1-1.2l0,0c0.1,0.4,0.4,1,0.6,1.4l0.5,1.3L134.2,38.2z"/>
                <path class="st1" d="M137.6,39.1L135,33l1.1-0.4l1.9,2c0.4,0.4,1,1,1.4,1.5l0,0c-0.3-0.6-0.8-1.6-1.3-2.7l-0.6-1.3l1-0.4l2.6,6.1     l-1.1,0.4l-1.9-1.9c-0.4-0.4-1-1-1.4-1.6l0,0c0.3,0.6,0.7,1.5,1.3,2.7l0.6,1.3L137.6,39.1z"/>
                <path class="st1" d="M141.6,31.8l-1.1,0.3l-0.3-1.1l3.5-1l0.3,1.1l-1.1,0.3l1.4,5.2L143,37L141.6,31.8z"/>
                <path class="st1" d="M148.9,31.9l0.1,0.9l-1.9,0.2l-0.1-0.9L148.9,31.9z"/>
                <path class="st1" d="M155.1,35.6c-0.2,0.1-0.5,0.1-1,0.1c-1.7-0.1-2.4-1.5-2.4-3.3c0.1-2.5,1.5-3.4,2.7-3.4     c0.4,0,0.7,0.1,0.9,0.2l-0.2,1c-0.1-0.1-0.3-0.1-0.6-0.1c-0.7,0-1.4,0.6-1.4,2.2c-0.1,1.6,0.5,2.2,1.3,2.2c0.2,0,0.4-0.1,0.6-0.1     L155.1,35.6z"/>
                <path class="st1" d="M160.1,33c-0.4,2.4-1.4,3.3-2.6,3.1c-1.5-0.2-1.8-1.8-1.6-3.6c0.3-1.8,1.2-3.2,2.7-3     C160.2,29.7,160.3,31.5,160.1,33z M157.3,32.7c-0.2,1.5-0.1,2.3,0.4,2.4c0.5,0.1,0.9-0.9,1.1-2.1c0.1-1.1,0.1-2.2-0.4-2.3     C157.9,30.5,157.4,31.3,157.3,32.7z"/>
                <path class="st1" d="M165,35.5c0.1-0.6,0.4-1.4,0.6-2.1l0,0c-0.3,0.7-0.7,1.3-1,1.8l-1.3,2.1l-0.9-0.3l0.2-2.4     c0.1-0.5,0.1-1.4,0.2-2.1l0,0c-0.2,0.7-0.5,1.5-0.7,2.1l-0.8,2.1l-1-0.4l2.5-6.1l1.3,0.4l-0.2,2.4c-0.1,0.8-0.1,1.6-0.3,2.4l0,0     c0.3-0.7,0.7-1.3,1.1-2.1l1.3-2.1l1.3,0.4l-1.6,6.4l-1.1-0.4L165,35.5z"/>
                <path class="st1" d="M169.3,32.8c0.4,0.1,0.8,0.3,1.3,0.5c0.7,0.4,1.2,0.7,1.3,1.3c0.2,0.5,0.1,1-0.1,1.6c-0.3,0.7-0.7,1-1.2,1.2     c-0.6,0.2-1.3,0.1-1.7-0.1c-0.1-0.1-0.1-0.1-0.2-0.1l-1.1,2.1l-1.1-0.6L169.3,32.8z M169.1,36.1c0.1,0.1,0.1,0.1,0.1,0.1     c0.6,0.3,1,0,1.3-0.5c0.3-0.5,0.3-1-0.3-1.3c-0.1-0.1-0.2-0.1-0.3-0.1L169.1,36.1z"/>
                <path class="st1" d="M174.1,35.3l1,0.7l-3.1,4.5l1.4,1l-0.6,0.9l-2.4-1.7L174.1,35.3z"/>
                <path class="st1" d="M178.7,38.8l-4.2,5l-1-0.8l4.2-5L178.7,38.8z"/>
                <path class="st1" d="M177.2,44.3l-1.3,0.8l-0.9-0.9l5.7-3.5l1,1.1l-3.8,5.5l-0.9-0.9l0.9-1.3L177.2,44.3z M178.7,44.4l0.8-1.1     c0.2-0.3,0.7-0.8,0.9-1.2l0,0c-0.4,0.2-0.9,0.7-1.3,0.9l-1.2,0.8L178.7,44.4z"/>
                <path class="st1" d="M178.5,48l5.3-3.8l0.7,1l-1.5,2.4c-0.3,0.4-0.8,1.2-1.1,1.7l0,0c0.5-0.4,1.4-1.2,2.4-1.9l1.2-0.9l0.7,0.9     l-5.3,3.8l-0.7-1l1.4-2.3c0.3-0.5,0.8-1.3,1.2-1.7l0,0c-0.5,0.4-1.3,1-2.4,1.8l-1.2,0.9L178.5,48z"/>
                <path class="st1" d="M186.5,50.2l-0.5-1l1-0.6l1.7,3.2l-1,0.6l-0.6-1l-4.7,2.6l-0.6-1.1L186.5,50.2z"/>
            </g>
        </g>
        <g>
            <path class="st2" d="M164.1,118.1c-0.6,0-1.1-0.3-1.4-0.8c-2-3.3-5.5-7.2-10-11.3c-2.4-2.1-4.5-3.8-6.4-5.3    c-0.4-0.3-0.7-0.8-0.7-1.4v-0.3c0-1.2,0-3.1,1.5-5c1.1-1.4,2.8-2.3,4.4-2.3c0.2,0,0.4,0,0.5,0.1c0.1,0,0.3,0.1,0.4,0.1    c4,1.6,8.8,5.4,11.2,7.4c5.9-8,13.2-14.6,18.4-18.8c3.5-2.9,7.1-5.5,10.7-7.8c0.3-0.2,0.6-0.3,0.9-0.3c0.3,0,0.5,0.1,0.8,0.2    c0.8,0.4,1.6,1.1,2,1.7c0.6,0.9,0.9,1.8,0.7,2.9c-0.1,0.4-0.3,0.8-0.6,1.1c-21,17.8-30.8,38.6-30.9,38.9c-0.3,0.5-0.8,0.9-1.4,0.9    C164.1,118.1,164.1,118.1,164.1,118.1z"/>
            <path class="st1" d="M193.6,74c0.5,0.3,1.1,0.7,1.4,1.2c0.5,0.6,0.5,1.2,0.5,1.8c-21.5,18.2-31.3,39.4-31.3,39.4    c-2.6-4.2-6.8-8.4-10.3-11.7c-2.3-2-4.5-3.8-6.6-5.4c0-1.1-0.1-2.7,1.1-4.3c0.9-1.1,2.2-1.7,3.1-1.7c0.1,0,0.2,0,0.3,0l0,0    c5.1,2.1,12.2,8.3,12.2,8.3c5.8-8.2,13.2-15.1,19.2-20C186.7,78.8,190.2,76.2,193.6,74 M193.6,70.6c-0.7,0-1.3,0.2-1.8,0.5    c-3.6,2.4-7.2,5.1-10.8,8c-5,4.1-11.8,10.3-17.6,17.8c-2.7-2.1-6.8-5.1-10.3-6.6c-0.3-0.1-0.5-0.2-0.8-0.2    c-0.3-0.1-0.5-0.1-0.7-0.1c-2.1,0-4.3,1.1-5.7,3c-1.9,2.4-1.8,4.8-1.8,6.1v0.3c0,1.1,0.5,2.1,1.4,2.7c1.9,1.4,4,3.1,6.3,5.1    c4.5,4,7.8,7.8,9.7,10.9c0.6,1,1.7,1.6,2.9,1.6c0.1,0,0.1,0,0.2,0c1.2-0.1,2.4-0.8,2.9-2c0.1-0.2,9.8-20.8,30.5-38.3    c0.7-0.5,1.1-1.4,1.1-2.2c0.1-1.5-0.2-2.8-1.1-4.1c-0.6-0.9-1.6-1.7-2.6-2.2C194.7,70.8,194.1,70.6,193.6,70.6L193.6,70.6z"/>
        </g>
        <g>
            <path class="st3" d="M133.4,61.9c0.9-0.2,2-0.3,3.1-0.3c1.6,0,3,0.2,3.9,1.1c0.9,0.8,1.1,1.8,1.1,3c0,1.6-0.7,3-2.2,3.6v0.1    c1,0.4,1.5,1.4,1.8,2.9c0.3,1.6,0.7,3.4,0.9,4h-3c-0.2-0.4-0.5-1.9-0.7-3.5c-0.3-1.8-0.7-2.4-1.7-2.4h-0.4v5.9h-2.8V61.9z     M136.3,68.2h0.5c1.2,0,2-1,2-2.3c0-1.2-0.5-2.2-1.8-2.2c-0.3,0-0.5,0-0.7,0.1L136.3,68.2L136.3,68.2z"/>
            <path class="st3" d="M152.6,68.7c0,5.5-2,7.8-4.7,7.8c-3.3,0-4.7-3.5-4.7-7.6c0-4,1.6-7.4,4.8-7.4    C151.6,61.5,152.6,65.4,152.6,68.7z M146.2,69c0,3.3,0.6,5,1.8,5c1.2,0,1.6-2.2,1.6-5.1c0-2.6-0.4-4.9-1.7-4.9    C146.9,64,146.2,65.8,146.2,69z"/>
            <path class="st3" d="M157.6,61.7v5.9h3v-5.9h2.8v14.7h-2.8v-6.1h-3v6.1h-2.8V61.7H157.6z"/>
            <path class="st3" d="M166,73.4c0.6,0.3,1.6,0.5,2.4,0.5c1.4,0,2-0.7,2-1.6c0-1.1-0.7-1.6-1.9-2.4c-2-1.2-2.8-2.8-2.8-4.1    c0-2.4,1.6-4.3,4.7-4.3c0.9,0,1.9,0.3,2.3,0.5l-0.5,2.4c-0.4-0.3-1-0.5-1.9-0.5c-1.2,0-1.8,0.7-1.8,1.6c0,0.9,0.4,1.4,2,2.3    c2,1.1,2.6,2.6,2.6,4.2c0,2.7-2,4.5-4.9,4.5c-1.1,0-2.3-0.3-2.8-0.6L166,73.4z"/>
        </g>
    </g>
</svg>