<svg xmlns="http://www.w3.org/2000/svg"
    xmlns:xlink="http://www.w3.org/1999/xlink" version="1.1" id="Layer_1" x="0px" y="0px" viewBox="0 0 201.7 134.6" style="enable-background:new 0 0 201.7 134.6;" xml:space="preserve">
    <style type="text/css">
	.st0{fill:#1D1D1D;}
    </style>
    <g>
        <path class="st0" d="M136.4,99c21.4-0.1,42.7-0.2,64.1-0.3c0.1,1.8,0.2,3.5,0.3,5.3c-23.9,1.9-47.8,3.8-71.8,5.7   c0-0.8-0.1-1.5,0-2.2c0.1-0.9-0.3-1.1-1.1-1c-1,0.1-1.9,0-2.9,0c-0.6,0-1,0.2-1.3,0.8c-3.3,5.9-8.2,10-14.7,11.9   c-12.3,3.7-25.3-2.5-30.2-14.3c-0.3-0.7-0.6-0.9-1.3-0.9c-9.2,0-18.4,0-27.5,0c-0.7,0-1,0.2-1.2,0.8c-6.9,16.5-28.1,20.7-40.7,8.1   c-9.3-9.2-9.6-24.5-0.6-34.1c2.6-2.7,5.6-4.8,9-6.2c0.6-0.2,0.8-0.6,0.8-1.2c0-1.1,0-2.1,0-3.3c0.5,0,0.8,0,1.2,0   c4.3,0,8.6,0,12.9,0c0.9,0,1.1-0.2,1.1-1.1c0-17.2,0-34.4,0-51.5c0-0.4,0-0.8,0-1.3c0.4,0,0.8,0,1.1,0c17.2,0,34.5,0,51.7,0   c0.9,0,1.1,0.3,1.4,1.1c4.8,14.6,9.6,29.1,14.4,43.7c1.2,3.7,2.4,7.3,3.6,11c0.2,0.6,0.4,0.9,1,1c5,1.3,9.6,3.4,13.5,6.9   c0.2,0.2,0.6,0.3,0.9,0.3c2.7,0,5.4,0,8.1,0c0.6,0,0.9-0.2,0.8-0.8c0-0.3,0-0.6,0-0.8c0-17,0-33.9,0-50.9c0-1.3,0-1.3,1.3-1.3   c2,0,4,0,6.1,0C136.4,49.4,136.4,74.1,136.4,99z M70.8,69.9c0,0.5,0,0.8,0,1.1c0,3.5,0,7.1,0,10.6c0,0.7,0.2,1,0.8,1.2   c2.2,0.8,4.4,1.6,6.6,2.4c0.7,0.3,1,0.1,1.3-0.5c1.9-4,4.7-7.3,8.5-9.5c1.7-1,2.6-2.2,2.8-4c0.1-0.4-0.1-0.9-0.3-1.2   c-3.1-3.1-6.2-6.1-9.3-9.1c-1.3-1.3-2.6-2.5-4-3.8c-1.9,1.6-3.4,3.6-5.8,4.4c0-0.6,0.1-1.1,0.4-1.4c1.1-1.4,2.1-3,3.4-4.3   c2.2-2.3,4.5-4.5,6.8-6.7c0.4-0.4,1.1-0.6,1.6-0.9c0.1,0.1,0.2,0.2,0.3,0.4c-0.9,2.5-2.9,4.2-4.5,6.3c4,3.9,8,7.7,11.9,11.6   c0.1-0.3,0-0.6,0-0.8C87.2,51.3,83,36.9,78.9,22.5c-0.2-0.7-0.5-0.9-1.2-0.9c-11.6,0-23.2,0-34.9,0c-1.2,0-1.2,0-1.2,1.2   c0,12.1,0,24.2,0,36.3c0,3.6,0,7.2,0,10.8c0,0.7,0.2,1,0.9,1.3c1.9,0.8,3.7,1.7,5.5,2.5c0.3,0.1,0.6,0.2,1,0.4c0-9.8,0-19.5,0-29.2   c1.4,0,2.7,0,4,0c1.2,8.4,2.4,16.7,3.7,25.1C61.4,69.9,66.1,69.9,70.8,69.9z M101.8,106.5c6,0,11-4.8,11.1-10.8   c0.1-5.9-4.9-10.9-10.7-11c-5.9-0.2-11.3,4.5-11.4,10.7C90.7,101.5,95.6,106.5,101.8,106.5z M25.7,84.7c-6.1,0-11,4.9-11,10.9   s5,11,11,11c6.1,0,11-4.9,11-10.9C36.8,89.5,31.9,84.7,25.7,84.7z"/>
        <path class="st0" d="M139.5,95.8c0-12.3,0-24.4,0-36.7c17.8,0,35.5,0,53.4,0c0,0.4,0,0.8,0,1.1c0,11.4,0,22.9,0,34.3   c0,1.2,0,1.2-1.3,1.2c-17,0-34,0-51,0C140.3,95.8,139.9,95.8,139.5,95.8z M154.5,66c0,0.2,0,0.3,0,0.3c2.8,7.3,5.6,14.7,8.4,22   c0.1,0.2,0.3,0.5,0.5,0.5c1.4,0,2.8,0,4.3,0c-0.1-0.4-0.2-0.7-0.3-1c-1-2.6-2-5.1-2.9-7.7c-1.7-4.4-3.4-8.9-5.1-13.3   c-0.1-0.3-0.5-0.8-0.8-0.8C157.2,66,155.9,66,154.5,66z M176.5,88.9c-0.4-1.2-0.8-2.2-1.2-3.2c-2.4-6.3-4.8-12.5-7.2-18.8   c-0.1-0.3-0.4-0.8-0.6-0.8c-1.4-0.1-2.8,0-4.2,0c0,0.2,0,0.2,0,0.2c2.8,7.4,5.6,14.7,8.4,22.1c0.1,0.2,0.3,0.5,0.5,0.5   C173.6,88.9,174.9,88.9,176.5,88.9z M185.1,88.9c-0.1-0.4-0.1-0.7-0.2-1c-2.7-7.1-5.4-14.1-8.1-21.2c-0.1-0.2-0.3-0.6-0.5-0.6   c-1.4,0-2.8,0-4.4,0c0.5,1.2,0.8,2.2,1.2,3.2c2.4,6.2,4.7,12.5,7.1,18.7c0.1,0.4,0.5,0.9,0.8,0.9C182.3,88.9,183.7,88.9,185.1,88.9   z M147.3,66.1c0.1,2.2-0.2,4.2,0.6,6.2c2.1,5.3,4.1,10.6,6.1,15.9c0.1,0.3,0.4,0.7,0.7,0.8c1.4,0.1,2.7,0,4.2,0   c-0.2-0.6-0.4-1-0.6-1.5c-2.6-6.8-5.2-13.7-7.9-20.5c-0.1-0.3-0.4-0.8-0.6-0.8C149.1,66,148.3,66.1,147.3,66.1z M180.7,66.1   c1.4,3.7,2.8,7.3,4.1,10.8c0.1,0,0.1,0,0.2-0.1c0-3.6,0-7.1,0-10.7C183.6,66.1,182.2,66.1,180.7,66.1z M150.2,88.8   c-0.9-2.4-1.8-4.6-2.6-6.9c-0.1,0-0.1,0-0.2,0.1c0,2.3,0,4.5,0,6.8C148.3,88.8,149.2,88.8,150.2,88.8z"/>
        <path class="st0" d="M139.5,53.7c0-12.3,0-24.4,0-36.6c17.8,0,35.5,0,53.3,0c0,0.3,0.1,0.7,0.1,1c0,11.5,0,23,0,34.6   c0,0.8-0.1,1.1-1,1.1c-17.2,0-34.3,0-51.5,0C140.1,53.7,139.9,53.7,139.5,53.7z M167.7,46.9c-0.3-0.7-0.5-1.3-0.7-1.8   c-2.6-6.7-5.1-13.5-7.7-20.2c-0.1-0.3-0.4-0.9-0.7-0.9c-1.4-0.1-2.8,0-4.1,0c0,0.2,0,0.2,0,0.2c2.8,7.4,5.6,14.8,8.5,22.2   c0.1,0.2,0.4,0.5,0.7,0.5C164.9,46.9,166.2,46.9,167.7,46.9z M163.2,24c0.1,0.4,0.2,0.6,0.3,0.9c0.7,1.9,1.5,3.8,2.2,5.8   c2,5.1,3.9,10.2,5.9,15.4c0.1,0.3,0.4,0.8,0.7,0.8c1.4,0.1,2.7,0,4.2,0c-0.1-0.4-0.2-0.7-0.3-1c-0.9-2.2-1.7-4.5-2.6-6.7   c-1.8-4.8-3.6-9.5-5.5-14.3c-0.1-0.3-0.4-0.8-0.7-0.8C166,23.9,164.7,24,163.2,24z M172,24c0.1,0.4,0.2,0.7,0.3,1   c0.8,2.1,1.6,4.1,2.4,6.2c1.9,5,3.8,10,5.7,14.9c0.1,0.3,0.4,0.7,0.7,0.7c1.3,0.1,2.6,0,4,0c-0.1-0.4-0.1-0.8-0.2-1.1   c-0.4-1.2-0.9-2.4-1.4-3.6c-2.2-5.8-4.4-11.6-6.7-17.5c-0.1-0.3-0.4-0.7-0.6-0.8C174.8,23.9,173.4,24,172,24z M158.9,46.9   c0-0.2,0-0.3,0-0.3c-2.8-7.4-5.6-14.7-8.4-22.1c-0.1-0.2-0.3-0.5-0.5-0.5c-0.9,0-1.7,0-2.6,0c0.1,2.3-0.1,4.3,0.7,6.4   c2.1,5.2,4,10.5,6.1,15.7c0.1,0.3,0.5,0.8,0.8,0.8C156.2,46.9,157.5,46.9,158.9,46.9z M180.7,24c1.4,3.7,2.8,7.3,4.1,10.9   c0,0,0.1,0,0.1-0.1c0-3.6,0-7.2,0-10.8C183.6,24,182.2,24,180.7,24z M150.2,46.7c-0.9-2.3-1.7-4.5-2.6-6.8c-0.1,0-0.2,0-0.2,0.1   c0,1.5,0,3,0,4.5c0,2.6,0,2.6,2.7,2.4C150,46.8,150,46.8,150.2,46.7z"/>
    </g>
</svg>