<svg id="Group_6" data-name="Group 6" xmlns="http://www.w3.org/2000/svg" xmlns:xlink="http://www.w3.org/1999/xlink" width="47.423" height="47.626" viewBox="0 0 47.423 47.626">
  <defs>
    <clipPath id="clip-path">
      <rect id="Rectangle_6" data-name="Rectangle 6" width="47.423" height="47.626" fill="none"/>
    </clipPath>
  </defs>
  <g id="Group_5" data-name="Group 5" transform="translate(0 0)" clip-path="url(#clip-path)">
    <path id="Path_2" data-name="Path 2" d="M23.88,47.224a22.979,22.979,0,0,1-10.394-2.287,1.881,1.881,0,0,0-1.352-.141c-3.534.934-7.075,1.843-10.617,2.75-1.161.3-1.731-.251-1.443-1.421.283-1.151.627-2.287.944-3.43.644-2.333,1.292-4.665,1.927-7a1.5,1.5,0,0,0-.133-1.138A23.586,23.586,0,0,1,.2,21.934,23.241,23.241,0,0,1,3.551,11.444a23.932,23.932,0,0,1,6.509-7.03A22.8,22.8,0,0,1,20.127.293,23.383,23.383,0,0,1,36.4,3.631a22.912,22.912,0,0,1,8.163,8.739,22.784,22.784,0,0,1,2.64,7.976,23.708,23.708,0,0,1-7.52,20.778A23.283,23.283,0,0,1,27.94,46.93a18.2,18.2,0,0,1-4.059.295m-.891-46.2a19.991,19.991,0,0,0-6.025,1.043A22.01,22.01,0,0,0,8.283,7.181a22.466,22.466,0,0,0-6.106,9.768A23.153,23.153,0,0,0,1.6,28.155a19.212,19.212,0,0,0,2.255,6.175,1.5,1.5,0,0,1,.172,1.261c-.416,1.4-.812,2.8-1.2,4.208-.569,2.069-1.123,4.143-1.683,6.215-.091.335-.223.7.382.535Q3.715,45.97,5.9,45.4q3.33-.875,6.662-1.745a.879.879,0,0,1,.7.023,22.46,22.46,0,0,0,13.558,2.4,23.052,23.052,0,0,0,7.452-2.362,21.989,21.989,0,0,0,8.382-7.577A22.132,22.132,0,0,0,46.37,22.525a22.687,22.687,0,0,0-1.235-6.442A22.737,22.737,0,0,0,22.99,1.024" transform="translate(0 0)" fill="#FFFFFF"/>
    <path id="Path_3" data-name="Path 3" d="M23.628,1.631a22.487,22.487,0,0,1,23.381,21.5,22.136,22.136,0,0,1-3.717,13.608,21.989,21.989,0,0,1-8.381,7.577,23.051,23.051,0,0,1-7.453,2.362,22.468,22.468,0,0,1-13.558-2.4.874.874,0,0,0-.7-.023Q9.869,45.126,6.539,46q-2.184.573-4.368,1.151c-.605.16-.473-.2-.383-.535C2.349,44.547,2.9,42.474,3.471,40.4c.387-1.406.782-2.81,1.2-4.208A1.5,1.5,0,0,0,4.5,34.935a19.159,19.159,0,0,1-2.255-6.174,23.144,23.144,0,0,1,.573-11.206A22.464,22.464,0,0,1,8.921,7.787,22.013,22.013,0,0,1,17.6,2.674a19.978,19.978,0,0,1,6.025-1.043M7.053,41.892c2.09-.549,4.056-1.036,6-1.591a2.373,2.373,0,0,1,2.017.229,17.971,17.971,0,0,0,12.455,2.239A18.784,18.784,0,1,0,8.552,34.3a1.652,1.652,0,0,1,.185,1.463c-.568,1.994-1.1,4-1.683,6.131" transform="translate(-0.638 -0.607)" fill="#FFFFFF"/>
    <!-- <path id="Path_4" data-name="Path 4" d="M9.393,44.162c.582-2.132,1.115-4.136,1.684-6.131a1.656,1.656,0,0,0-.186-1.463A18.792,18.792,0,1,1,29.869,45.04,17.967,17.967,0,0,1,17.414,42.8a2.373,2.373,0,0,0-2.017-.229c-1.947.554-3.913,1.042-6,1.591m23.829-6.83c.123-.011.247-.023.371-.031a4.888,4.888,0,0,0,4.657-4.539,1.125,1.125,0,0,0-.715-1.3c-1.4-.629-2.776-1.311-4.154-1.987a1.1,1.1,0,0,0-1.591.4c-.466.669-1.018,1.279-1.536,1.912a.905.905,0,0,1-1.168.323,15.438,15.438,0,0,1-7.759-6.648.937.937,0,0,1,.1-1.215c.458-.553.876-1.139,1.3-1.719a1.15,1.15,0,0,0,.161-1.192c-.612-1.461-1.217-2.924-1.832-4.385a1.321,1.321,0,0,0-.673-.763,3.418,3.418,0,0,0-3.194.64,6.453,6.453,0,0,0-1.64,6.517,14.6,14.6,0,0,0,2.6,4.805c2.58,3.557,5.644,6.52,9.888,8.022a13.389,13.389,0,0,0,5.178,1.156" transform="translate(-2.978 -2.876)" fill="#64b161"/> -->
    <path id="Path_5" data-name="Path 5" d="M37.572,42.291a13.389,13.389,0,0,1-5.178-1.156c-4.244-1.5-7.308-4.464-9.888-8.022a14.6,14.6,0,0,1-2.6-4.805,6.453,6.453,0,0,1,1.64-6.517,3.418,3.418,0,0,1,3.194-.64,1.321,1.321,0,0,1,.673.763c.615,1.46,1.22,2.924,1.832,4.385a1.15,1.15,0,0,1-.161,1.192c-.426.579-.844,1.166-1.3,1.719a.937.937,0,0,0-.1,1.215,15.438,15.438,0,0,0,7.759,6.648.905.905,0,0,0,1.168-.323c.518-.633,1.07-1.242,1.536-1.912a1.1,1.1,0,0,1,1.591-.4c1.378.676,2.755,1.358,4.154,1.987a1.125,1.125,0,0,1,.715,1.3,4.888,4.888,0,0,1-4.657,4.539c-.124.009-.248.021-.371.031" transform="translate(-7.328 -7.834)" fill="#FFFFFF"/>
  </g>
</svg>
